HIERARCHY
ROOT Hips
{
	OFFSET 0.327225 85.456291 8.060652
	CHANNELS 6 Xposition Yposition Zposition Zrotation Yrotation Xrotation 
	JOINT Spine
	{
		OFFSET 0.000000 8.814246 -2.080107
		CHANNELS 3 Zrotation Yrotation Xrotation
		JOINT Spine1
		{
			OFFSET -0.000000 8.844141 0.000000
			CHANNELS 3 Zrotation Yrotation Xrotation
			JOINT Spine2
			{
				OFFSET 0.000000 11.682268 0.000000
				CHANNELS 3 Zrotation Yrotation Xrotation
				JOINT Spine3
				{
					OFFSET 0.000000 11.746700 0.000000
					CHANNELS 3 Zrotation Yrotation Xrotation
					JOINT Neck
					{
						OFFSET 0.000000 17.658264 0.000000
						CHANNELS 3 Zrotation Yrotation Xrotation
						JOINT Neck1
						{
							OFFSET 0.000000 5.101515 0.000000
							CHANNELS 3 Zrotation Yrotation Xrotation
							JOINT Head
							{
								OFFSET -0.000000 5.101515 -0.000000
								CHANNELS 3 Zrotation Yrotation Xrotation
								JOINT HeadEnd
								{
									OFFSET 0.000000 11.655085 0.000000
									CHANNELS 3 Zrotation Yrotation Xrotation
									End Site
									{
										OFFSET 0.000000 0.000000 0.000000
									}
								}
							}
						}
					}
					JOINT RightShoulder
					{
						OFFSET -2.625389 11.175210 -0.000000
						CHANNELS 3 Zrotation Yrotation Xrotation
						JOINT RightArm
						{
							OFFSET 0.000000 10.434715 0.000000
							CHANNELS 3 Zrotation Yrotation Xrotation
							JOINT RightForeArm
							{
								OFFSET -0.000000 29.628420 -0.000000
								CHANNELS 3 Zrotation Yrotation Xrotation
								JOINT RightHand
								{
									OFFSET 0.000000 22.857611 -0.000000
									CHANNELS 3 Zrotation Yrotation Xrotation
									JOINT RightHandThumb1
									{
										OFFSET -2.867323 3.959563 2.944291
										CHANNELS 3 Zrotation Yrotation Xrotation
										JOINT RightHandThumb2
										{
											OFFSET -0.000000 3.350399 0.000000
											CHANNELS 3 Zrotation Yrotation Xrotation
											JOINT RightHandThumb3
											{
												OFFSET -0.000000 3.756509 0.000000
												CHANNELS 3 Zrotation Yrotation Xrotation
												JOINT RightHandThumb4
												{
													OFFSET -0.000000 3.147345 0.000000
													CHANNELS 3 Zrotation Yrotation Xrotation
													End Site
													{
														OFFSET 0.000000 0.000000 0.000000
													}
												}
											}
										}
									}
									JOINT RightHandIndex1
									{
										OFFSET -0.086752 10.030893 2.345280
										CHANNELS 3 Zrotation Yrotation Xrotation
										JOINT RightHandIndex2
										{
											OFFSET -0.000000 4.061090 -0.000000
											CHANNELS 3 Zrotation Yrotation Xrotation
											JOINT RightHandIndex3
											{
												OFFSET 0.000000 3.248873 -0.000000
												CHANNELS 3 Zrotation Yrotation Xrotation
												JOINT RightHandIndex4
												{
													OFFSET 0.000000 2.639709 -0.000000
													CHANNELS 3 Zrotation Yrotation Xrotation
													End Site
													{
														OFFSET 0.000000 0.000000 0.000000
													}
												}
											}
										}
									}
									JOINT RightHandMiddle1
									{
										OFFSET 0.104102 9.502952 0.006768
										CHANNELS 3 Zrotation Yrotation Xrotation
										JOINT RightHandMiddle2
										{
											OFFSET -0.000000 4.568727 -0.000000
											CHANNELS 3 Zrotation Yrotation Xrotation
											JOINT RightHandMiddle3
											{
												OFFSET -0.000000 3.654981 -0.000000
												CHANNELS 3 Zrotation Yrotation Xrotation
												JOINT RightHandMiddle4
												{
													OFFSET -0.000000 2.741236 -0.000000
													CHANNELS 3 Zrotation Yrotation Xrotation
													End Site
													{
														OFFSET 0.000000 0.000000 0.000000
													}
												}
											}
										}
									}
									JOINT RightHandRing1
									{
										OFFSET 0.086752 8.921708 -2.267442
										CHANNELS 3 Zrotation Yrotation Xrotation
										JOINT RightHandRing2
										{
											OFFSET -0.000000 4.061090 0.000000
											CHANNELS 3 Zrotation Yrotation Xrotation
											JOINT RightHandRing3
											{
												OFFSET 0.000000 3.654981 -0.000000
												CHANNELS 3 Zrotation Yrotation Xrotation
												JOINT RightHandRing4
												{
													OFFSET 0.000000 2.741236 -0.000000
													CHANNELS 3 Zrotation Yrotation Xrotation
													End Site
													{
														OFFSET 0.000000 0.000000 0.000000
													}
												}
											}
										}
									}
									JOINT RightHandPinky1
									{
										OFFSET -0.173504 7.976997 -4.467199
										CHANNELS 3 Zrotation Yrotation Xrotation
										JOINT RightHandPinky2
										{
											OFFSET -0.000000 3.350399 0.000000
											CHANNELS 3 Zrotation Yrotation Xrotation
											JOINT RightHandPinky3
											{
												OFFSET 0.000000 2.842763 -0.000000
												CHANNELS 3 Zrotation Yrotation Xrotation
												JOINT RightHandPinky4
												{
													OFFSET -0.000000 2.639709 0.000000
													CHANNELS 3 Zrotation Yrotation Xrotation
													End Site
													{
														OFFSET 0.000000 0.000000 0.000000
													}
												}
											}
										}
									}
									JOINT RightForeArmEnd
									{
										OFFSET 0.000000 0.000000 0.000000
										CHANNELS 3 Zrotation Yrotation Xrotation
										End Site
										{
											OFFSET 0.000000 0.000000 0.000000
										}
									}
								}
								JOINT RightArmEnd
								{
									OFFSET 0.000000 0.000000 0.000000
									CHANNELS 3 Zrotation Yrotation Xrotation
									End Site
									{
										OFFSET 0.000000 0.000000 0.000000
									}
								}
							}
						}
					}
					JOINT LeftShoulder
					{
						OFFSET 2.625389 11.175210 0.000000
						CHANNELS 3 Zrotation Yrotation Xrotation
						JOINT LeftArm
						{
							OFFSET -0.000000 10.813635 0.000000
							CHANNELS 3 Zrotation Yrotation Xrotation
							JOINT LeftForeArm
							{
								OFFSET 0.000000 28.724781 -0.000000
								CHANNELS 3 Zrotation Yrotation Xrotation
								JOINT LeftHand
								{
									OFFSET 0.644384 25.716167 -0.328871
									CHANNELS 3 Zrotation Yrotation Xrotation
									JOINT LeftHandThumb1
									{
										OFFSET 2.867323 3.959563 2.944291
										CHANNELS 3 Zrotation Yrotation Xrotation
										JOINT LeftHandThumb2
										{
											OFFSET 0.000000 3.350399 -0.000000
											CHANNELS 3 Zrotation Yrotation Xrotation
											JOINT LeftHandThumb3
											{
												OFFSET 0.000000 3.756509 0.000000
												CHANNELS 3 Zrotation Yrotation Xrotation
												JOINT LeftHandThumb4
												{
													OFFSET 0.000000 3.100000 0.000000
													CHANNELS 3 Zrotation Yrotation Xrotation
													End Site
													{
														OFFSET 0.000000 0.000000 0.000000
													}
												}
											}
										}
									}
									JOINT LeftHandIndex1
									{
										OFFSET 0.086752 10.030893 2.345280
										CHANNELS 3 Zrotation Yrotation Xrotation
										JOINT LeftHandIndex2
										{
											OFFSET 0.000000 4.061090 0.000000
											CHANNELS 3 Zrotation Yrotation Xrotation
											JOINT LeftHandIndex3
											{
												OFFSET -0.000000 3.248873 -0.000000
												CHANNELS 3 Zrotation Yrotation Xrotation
												JOINT LeftHandIndex4
												{
													OFFSET -0.000000 2.639709 -0.000000
													CHANNELS 3 Zrotation Yrotation Xrotation
													End Site
													{
														OFFSET 0.000000 0.000000 0.000000
													}
												}
											}
										}
									}
									JOINT LeftHandMiddle1
									{
										OFFSET -0.104102 9.502952 0.006768
										CHANNELS 3 Zrotation Yrotation Xrotation
										JOINT LeftHandMiddle2
										{
											OFFSET 0.000000 4.568727 0.000000
											CHANNELS 3 Zrotation Yrotation Xrotation
											JOINT LeftHandMiddle3
											{
												OFFSET -0.000000 3.654981 -0.000000
												CHANNELS 3 Zrotation Yrotation Xrotation
												JOINT LeftHandMiddle4
												{
													OFFSET -0.000000 2.741236 -0.000000
													CHANNELS 3 Zrotation Yrotation Xrotation
													End Site
													{
														OFFSET 0.000000 0.000000 0.000000
													}
												}
											}
										}
									}
									JOINT LeftHandRing1
									{
										OFFSET -0.086752 8.921708 -2.267442
										CHANNELS 3 Zrotation Yrotation Xrotation
										JOINT LeftHandRing2
										{
											OFFSET 0.000000 4.061090 0.000000
											CHANNELS 3 Zrotation Yrotation Xrotation
											JOINT LeftHandRing3
											{
												OFFSET -0.000000 3.654981 -0.000000
												CHANNELS 3 Zrotation Yrotation Xrotation
												JOINT LeftHandRing4
												{
													OFFSET -0.000000 2.741236 -0.000000
													CHANNELS 3 Zrotation Yrotation Xrotation
													End Site
													{
														OFFSET 0.000000 0.000000 0.000000
													}
												}
											}
										}
									}
									JOINT LeftHandPinky1
									{
										OFFSET 0.173504 7.976997 -4.467199
										CHANNELS 3 Zrotation Yrotation Xrotation
										JOINT LeftHandPinky2
										{
											OFFSET 0.000000 3.350399 0.000000
											CHANNELS 3 Zrotation Yrotation Xrotation
											JOINT LeftHandPinky3
											{
												OFFSET 0.000000 2.842763 0.000000
												CHANNELS 3 Zrotation Yrotation Xrotation
												JOINT LeftHandPinky4
												{
													OFFSET 0.000000 2.639709 -0.000000
													CHANNELS 3 Zrotation Yrotation Xrotation
													End Site
													{
														OFFSET 0.000000 0.000000 0.000000
													}
												}
											}
										}
									}
									JOINT LeftForeArmEnd
									{
										OFFSET 0.000000 0.000000 0.000000
										CHANNELS 3 Zrotation Yrotation Xrotation
										End Site
										{
											OFFSET 0.000000 0.000000 0.000000
										}
									}
								}
								JOINT LeftArmEnd
								{
									OFFSET 0.000000 0.000000 0.000000
									CHANNELS 3 Zrotation Yrotation Xrotation
									End Site
									{
										OFFSET 0.000000 0.000000 0.000000
									}
								}
							}
						}
					}
				}
			}
		}
	}
	JOINT RightUpLeg
	{
		OFFSET -11.289943 0.000000 -0.000000
		CHANNELS 3 Zrotation Yrotation Xrotation
		JOINT RightLeg
		{
			OFFSET -0.000000 -38.200325 -0.000000
			CHANNELS 3 Zrotation Yrotation Xrotation
			JOINT RightFoot
			{
				OFFSET -0.000000 -39.900856 0.000000
				CHANNELS 3 Zrotation Yrotation Xrotation
				JOINT RightToeBase
				{
					OFFSET 0.000000 -0.000000 15.261641
					CHANNELS 3 Zrotation Yrotation Xrotation
					JOINT RightToeBaseEnd
					{
						OFFSET -0.000000 -0.000000 7.370709
						CHANNELS 3 Zrotation Yrotation Xrotation
						End Site
						{
							OFFSET 0.000000 0.000000 0.000000
						}
					}
				}
				JOINT RightLegEnd
				{
					OFFSET 0.000000 0.000000 0.000000
					CHANNELS 3 Zrotation Yrotation Xrotation
					End Site
					{
						OFFSET 0.000000 0.000000 0.000000
					}
				}
			}
			JOINT RightUpLegEnd
			{
				OFFSET 0.000000 0.000000 0.000000
				CHANNELS 3 Zrotation Yrotation Xrotation
				End Site
				{
					OFFSET 0.000000 0.000000 0.000000
				}
			}
		}
	}
	JOINT LeftUpLeg
	{
		OFFSET 11.315661 -0.000000 0.000000
		CHANNELS 3 Zrotation Yrotation Xrotation
		JOINT LeftLeg
		{
			OFFSET -0.000000 -38.200325 -0.000000
			CHANNELS 3 Zrotation Yrotation Xrotation
			JOINT LeftFoot
			{
				OFFSET -0.000000 -39.900856 0.000000
				CHANNELS 3 Zrotation Yrotation Xrotation
				JOINT LeftToeBase
				{
					OFFSET 0.000000 -0.000000 15.261641
					CHANNELS 3 Zrotation Yrotation Xrotation
					JOINT LeftToeBaseEnd
					{
						OFFSET -0.000000 0.000000 7.539996
						CHANNELS 3 Zrotation Yrotation Xrotation
						End Site
						{
							OFFSET 0.000000 0.000000 0.000000
						}
					}
				}
				JOINT LeftLegEnd
				{
					OFFSET 0.000000 0.000000 0.000000
					CHANNELS 3 Zrotation Yrotation Xrotation
					End Site
					{
						OFFSET 0.000000 0.000000 0.000000
					}
				}
			}
			JOINT LeftUpLegEnd
			{
				OFFSET 0.000000 0.000000 0.000000
				CHANNELS 3 Zrotation Yrotation Xrotation
				End Site
				{
					OFFSET 0.000000 0.000000 0.000000
				}
			}
		}
	}
}
MOTION
Frames: 4
Frame Time: 0.016667
-6.722568 86.078094 8.452522 -2.790389 6.922076 -22.930084 3.336486 -0.704419 10.876715 1.037393 -0.368860 2.942017 -0.065763 -2.225309 15.888220 -0.848285 -0.655234 8.021695 2.372332 0.728676 11.435803 -0.870104 1.100186 -1.588722 -0.451784 0.061690 -19.956890 0.000000 0.000000 0.000000 93.525536 -0.635654 13.183358 50.818382 -36.492485 20.747103 0.063519 12.295490 28.801809 9.016151 14.453419 -2.193063 -4.826806 0.764109 46.918530 0.000012 0.000012 11.232814 0.000016 0.000046 8.274546 0.000029 0.000005 -0.000045 13.877529 1.242535 -9.308366 10.188952 -0.048822 -0.201247 10.045443 0.052646 -0.206571 -0.000024 0.000007 -0.000021 12.470500 0.503327 -10.496211 9.198185 -0.064623 -0.068906 9.161614 0.009097 -0.062091 -0.000016 -0.000134 0.000016 13.126742 -0.665061 -10.429018 9.589967 0.132763 0.098581 9.544288 -0.017601 0.067854 -0.000003 0.001033 -0.000005 13.348986 -1.787560 -11.356570 9.309931 0.192991 0.285796 9.287170 -0.141516 0.183849 -0.000382 0.000003 -0.000031 0.000000 0.000000 0.000000 0.000000 0.000000 0.000000 -90.637711 -0.165854 10.814216 -58.340878 32.243767 9.449911 -0.196345 -4.624344 44.180122 -5.428660 -20.873564 -9.780182 5.199088 -0.811863 46.964886 -0.000004 0.000038 11.909916 0.000016 0.000004 8.527841 0.000570 -0.000017 -0.000753 -13.825156 1.260064 -8.102405 -10.024191 -0.026577 0.358434 -10.049726 0.070066 0.346096 0.000031 0.000472 0.000015 -12.646885 0.524880 -9.491885 -8.923861 -0.064397 0.117967 -9.027431 0.018706 0.109574 0.000574 -0.000037 0.000061 -12.948657 -0.627307 -10.259629 -8.892488 0.125963 -0.136993 -8.736926 -0.023189 -0.093875 0.000939 0.000009 -0.000001 -12.595792 -1.799118 -11.214828 -8.342109 0.259324 -0.265319 -8.224686 -0.073907 -0.224709 0.000235 0.000004 -0.000060 0.000000 0.000000 0.000000 0.000000 0.000000 0.000000 1.022093 -5.178420 21.285261 -0.171715 -0.538028 16.397440 -2.604224 -11.184127 10.315357 -0.946847 1.084504 -16.109818 0.000000 0.000000 0.000000 0.000000 0.000000 0.000000 0.000000 0.000000 0.000000 9.450524 -5.641085 15.813906 0.438811 0.893084 27.535910 -3.440078 3.588163 6.330104 0.970801 -0.893769 -19.865269 0.000000 0.000000 0.000000 0.000000 0.000000 0.000000 0.000000 0.000000 0.000000 
-6.735706 86.081406 8.446520 -2.798195 6.924314 -22.912817 3.342469 -0.705194 10.884972 1.036635 -0.368840 2.947092 -0.076176 -2.224596 15.863273 -0.837213 -0.655818 7.992615 2.370329 0.727025 11.434692 -0.865591 1.104537 -1.585433 -0.456554 0.055645 -19.951277 0.000000 0.000000 0.000000 93.517044 -0.628990 13.157599 50.826237 -36.536755 20.762812 0.065946 12.278421 28.695932 9.105272 14.466582 -2.269795 -4.817544 0.763620 46.916290 0.000012 0.000012 11.217221 0.000016 0.000046 8.259751 0.000029 0.000005 -0.000045 13.892300 1.243167 -9.358890 10.184218 -0.048232 -0.200430 10.042295 0.053149 -0.205021 -0.000024 0.000007 -0.000021 12.487431 0.503489 -10.543279 9.190747 -0.064550 -0.068411 9.154809 0.009334 -0.061723 -0.000016 -0.000133 0.000016 13.133554 -0.665111 -10.448752 9.579929 0.132509 0.097082 9.533954 -0.017720 0.066893 -0.000003 0.001042 -0.000005 13.356849 -1.787612 -11.355538 9.297457 0.192280 0.282172 9.274905 -0.142408 0.180666 -0.000385 0.000003 -0.000032 0.000000 0.000000 0.000000 0.000000 0.000000 0.000000 -90.625038 -0.164873 10.780697 -58.388096 32.238750 9.442320 -0.196035 -4.629086 44.171623 -5.339892 -20.879240 -9.774364 5.195166 -0.812143 46.963680 -0.000004 0.000038 11.899836 0.000017 0.000004 8.520022 0.000559 -0.000017 -0.000740 -13.819047 1.260430 -8.100370 -10.032551 -0.025859 0.359327 -10.062284 0.070831 0.346886 0.000031 0.000488 0.000015 -12.655702 0.524970 -9.483410 -8.936021 -0.064151 0.118278 -9.037826 0.018908 0.109697 0.000575 -0.000037 0.000062 -12.975281 -0.627548 -10.229962 -8.904815 0.125639 -0.136735 -8.748969 -0.023459 -0.093812 0.000955 0.000009 -0.000001 -12.642753 -1.800170 -11.175169 -8.351658 0.258140 -0.263894 -8.233111 -0.074738 -0.222464 0.000233 0.000004 -0.000060 0.000000 0.000000 0.000000 0.000000 0.000000 0.000000 1.038959 -5.178389 21.265022 -0.170981 -0.535044 16.384449 -2.612728 -11.178614 10.334755 -0.941033 1.080426 -16.118629 0.000000 0.000000 0.000000 0.000000 0.000000 0.000000 0.000000 0.000000 0.000000 9.461305 -5.649152 15.786343 0.439347 0.894716 27.526760 -3.445819 3.594254 6.333927 0.974068 -0.895061 -19.876457 0.000000 0.000000 0.000000 0.000000 0.000000 0.000000 0.000000 0.000000 0.000000 
-6.749631 86.084709 8.440727 -2.806041 6.925195 -22.893044 3.348012 -0.705749 10.891885 1.034932 -0.368609 2.952955 -0.086753 -2.225197 15.836930 -0.825170 -0.657154 7.962226 2.367601 0.723871 11.426936 -0.860450 1.107063 -1.586558 -0.460778 0.049314 -19.949835 0.000000 0.000000 0.000000 93.511131 -0.622427 13.128893 50.822189 -36.585087 20.782709 0.067922 12.260819 28.592882 9.199863 14.471257 -2.348741 -4.807598 0.763010 46.913784 0.000013 0.000012 11.199397 0.000016 0.000046 8.243702 0.000030 0.000005 -0.000045 13.908587 1.243799 -9.411928 10.179100 -0.047617 -0.199550 10.038823 0.053686 -0.203428 -0.000024 0.000007 -0.000021 12.505010 0.503665 -10.591921 9.183005 -0.064465 -0.067883 9.147624 0.009592 -0.061337 -0.000017 -0.000132 0.000016 13.138837 -0.665218 -10.468437 9.569395 0.132182 0.095614 9.522852 -0.017881 0.065947 -0.000003 0.001051 -0.000005 13.362138 -1.787844 -11.354262 9.283382 0.191408 0.278738 9.261885 -0.143459 0.177691 -0.000386 0.000003 -0.000032 0.000000 0.000000 0.000000 0.000000 0.000000 0.000000 -90.613922 -0.162101 10.745817 -58.432827 32.232716 9.428488 -0.196245 -4.638732 44.166126 -5.258323 -20.874969 -9.771494 5.189655 -0.812205 46.961884 -0.000004 0.000038 11.885935 0.000017 0.000004 8.509390 0.000549 -0.000017 -0.000725 -13.815621 1.260782 -8.097684 -10.041286 -0.025188 0.359831 -10.075096 0.071556 0.347262 0.000031 0.000505 0.000016 -12.668167 0.525044 -9.474638 -8.948166 -0.063921 0.118423 -9.048151 0.019098 0.109715 0.000573 -0.000037 0.000063 -13.005898 -0.627826 -10.198818 -8.916596 0.125322 -0.136257 -8.760251 -0.023728 -0.093581 0.000971 0.000009 -0.000001 -12.693273 -1.801409 -11.134521 -8.360569 0.256979 -0.261676 -8.240926 -0.075553 -0.219703 0.000234 0.000004 -0.000061 0.000000 0.000000 0.000000 0.000000 0.000000 0.000000 1.056452 -5.182141 21.243288 -0.170318 -0.532290 16.369675 -2.623548 -11.172834 10.354195 -0.934920 1.076188 -16.126984 0.000000 0.000000 0.000000 0.000000 0.000000 0.000000 0.000000 0.000000 0.000000 9.472574 -5.654810 15.756952 0.439909 0.896342 27.513800 -3.451914 3.600633 6.339031 0.977833 -0.896007 -19.887499 0.000000 0.000000 0.000000 0.000000 0.000000 0.000000 0.000000 0.000000 0.000000 
-6.764493 86.088081 8.435440 -2.813555 6.924338 -22.871275 3.353070 -0.705957 10.896902 1.031834 -0.368105 2.959223 -0.097199 -2.227261 15.810432 -0.812023 -0.659228 7.932219 2.364508 0.719776 11.412404 -0.854446 1.108813 -1.592320 -0.464618 0.042731 -19.953230 0.000000 0.000000 0.000000 93.507759 -0.616716 13.097898 50.806568 -36.632168 20.805834 0.069408 12.242827 28.495632 9.297112 14.473971 -2.429677 -4.797023 0.762251 46.910969 0.000013 0.000011 11.179174 0.000016 0.000046 8.226398 0.000030 0.000005 -0.000046 13.926284 1.244401 -9.468009 10.173405 -0.046996 -0.198583 10.034855 0.054230 -0.201807 -0.000024 0.000007 -0.000021 12.522819 0.503846 -10.642811 9.174856 -0.064376 -0.067322 9.139863 0.009864 -0.060937 -0.000017 -0.000132 0.000016 13.141943 -0.665385 -10.489240 9.558536 0.131793 0.094218 9.511407 -0.018079 0.065043 -0.000003 0.001060 -0.000005 13.364202 -1.788271 -11.353755 9.268383 0.190381 0.275633 9.248866 -0.144664 0.175035 -0.000385 0.000003 -0.000032 0.000000 0.000000 0.000000 0.000000 0.000000 0.000000 -90.603775 -0.157404 10.710572 -58.476963 32.220440 9.409641 -0.197414 -4.653675 44.160652 -5.182092 -20.869045 -9.774314 5.182621 -0.812051 46.959545 -0.000004 0.000038 11.868464 0.000018 0.000004 8.496275 0.000540 -0.000017 -0.000709 -13.814134 1.261098 -8.095087 -10.049308 -0.024598 0.359919 -10.086972 0.072210 0.347208 0.000030 0.000523 0.000016 -12.683265 0.525088 -9.466313 -8.959184 -0.063721 0.118406 -9.057241 0.019270 0.109627 0.000567 -0.000038 0.000064 -13.039606 -0.628143 -10.167002 -8.927218 0.125032 -0.135556 -8.769935 -0.023984 -0.093197 0.000987 0.000009 -0.000001 -12.746047 -1.802830 -11.093670 -8.368714 0.255875 -0.258722 -8.247902 -0.076324 -0.216482 0.000236 0.000005 -0.000061 0.000000 0.000000 0.000000 0.000000 0.000000 0.000000 1.074014 -5.189606 21.221594 -0.169754 -0.529932 16.352692 -2.636516 -11.165565 10.373525 -0.928574 1.071916 -16.134659 0.000000 0.000000 0.000000 0.000000 0.000000 0.000000 0.000000 0.000000 0.000000 9.484170 -5.657696 15.727389 0.440503 0.897968 27.497269 -3.458621 3.608402 6.345163 0.982086 -0.896574 -19.898281 0.000000 0.000000 0.000000 0.000000 0.000000 0.000000 0.000000 0.000000 0.000000 
